HIERARCHY
ROOT Hips
{
    OFFSET 0.000000 0.000000 0.000000
    CHANNELS 6 Xposition Yposition Zposition Zrotation Xrotation Yrotation
    JOINT Spine
    {
        OFFSET -0.000000 8.249566 0.000000
        CHANNELS 3 Zrotation Xrotation Yrotation
        JOINT Spine1
        {
            OFFSET -0.000000 22.751984 0.000000
            CHANNELS 3 Zrotation Xrotation Yrotation
            JOINT Neck
            {
                OFFSET -0.000000 22.658548 2.059868
                CHANNELS 3 Zrotation Xrotation Yrotation
                JOINT Head
                {
                    OFFSET -0.000000 14.084625 -2.012089
                    CHANNELS 3 Zrotation Xrotation Yrotation
                    End Site
                    {
                        OFFSET -0.000000 25.151115 0.000000
                    }
                }
            }
            JOINT LeftShoulder
            {
                OFFSET 4.014710 20.418900 0.142539
                CHANNELS 3 Zrotation Xrotation Yrotation
                JOINT LeftArm
                {
                    OFFSET 12.409162 0.000000 0.000000
                    CHANNELS 3 Zrotation Xrotation Yrotation
                    JOINT LeftForeArm
                    {
                        OFFSET 32.111938 0.000000 0.000000
                        CHANNELS 3 Zrotation Xrotation Yrotation
                        JOINT LeftHand
                        {
                            OFFSET 25.320286 0.000000 0.000000
                            CHANNELS 3 Zrotation Xrotation Yrotation
                            End Site
                            {
                                OFFSET 15.090670 0.000000 0.000000
                            }
                        }
                    }
                }
            }
            JOINT RightShoulder
            {
                OFFSET -4.019371 20.418900 0.142539
                CHANNELS 3 Zrotation Xrotation Yrotation
                JOINT RightArm
                {
                    OFFSET -12.409162 0.000000 0.000000
                    CHANNELS 3 Zrotation Xrotation Yrotation
                    JOINT RightForeArm
                    {
                        OFFSET -32.111938 0.000000 0.000000
                        CHANNELS 3 Zrotation Xrotation Yrotation
                        JOINT RightHand
                        {
                            OFFSET -25.320286 0.000000 0.000000
                            CHANNELS 3 Zrotation Xrotation Yrotation
                            End Site
                            {
                                OFFSET -15.090670 0.000000 0.000000
                            }
                        }
                    }
                }
            }
        }
    }
    JOINT LeftUpLeg
    {
        OFFSET 10.060447 0.000000 0.000000
        CHANNELS 3 Zrotation Xrotation Yrotation
        JOINT LeftLeg
        {
            OFFSET -0.000000 -49.683781 0.000000
            CHANNELS 3 Zrotation Xrotation Yrotation
            JOINT LeftFoot
            {
                OFFSET -0.000000 -37.035061 0.000000
                CHANNELS 3 Zrotation Xrotation Yrotation
                JOINT LeftToeBase
                {
                    OFFSET -0.000000 -6.539289 15.090670
                    CHANNELS 3 Zrotation Xrotation Yrotation
                    End Site
                    {
                        OFFSET -0.000000 0.000000 4.024179
                    }
                }
            }
        }
    }
    JOINT RightUpLeg
    {
        OFFSET -10.060447 0.000000 0.000000
        CHANNELS 3 Zrotation Xrotation Yrotation
        JOINT RightLeg
        {
            OFFSET -0.000000 -49.683781 0.000000
            CHANNELS 3 Zrotation Xrotation Yrotation
            JOINT RightFoot
            {
                OFFSET -0.000000 -37.035061 0.000000
                CHANNELS 3 Zrotation Xrotation Yrotation
                JOINT RightToeBase
                {
                    OFFSET -0.000000 -6.539289 15.090670
                    CHANNELS 3 Zrotation Xrotation Yrotation
                    End Site
                    {
                        OFFSET -0.000000 0.000000 4.024179
                    }
                }
            }
        }
    }
}
MOTION
Frames:    6
Frame Time:    0.008333
-12.049339    107.001793    49.365685    1.127858    -2.296699    163.118683    0.323830    5.366983    -0.091155    1.169722    -1.344355    -0.062648    -0.379211    30.860714    17.540617    -9.826600    -10.313907    15.980875    19.599464    -6.650136    -8.270843    -23.614868    -9.530905    -31.576166    28.484947    -54.661285    -84.072884    2.090497    -36.540874    -24.496325    -15.513999    -2.649554    -0.090277    31.119072    -10.446804    37.632046    -66.271080    -60.084171    67.271378    5.145269    -21.237434    12.832579    3.970784    -19.842150    -7.642147    -0.224630    31.486059    -4.080312    3.950054    18.815205    -1.795208    0.000000    0.000000    0.000000    1.995509    -24.968800    0.645203    -2.266928    41.210068    6.016150    4.707942    18.696802    -10.188931    0.000000    0.000000    0.000000    
-11.970428    106.551155    49.069168    1.191268    -2.210746    162.082047    0.336025    5.306092    -0.057536    1.139238    -1.316753    -0.029739    -0.506801    31.258142    17.959324    -9.969746    -10.454456    16.354132    18.852528    -5.626446    -8.601729    -23.949045    -10.577566    -31.733673    28.305794    -55.120586    -87.082222    2.502735    -36.204788    -24.654854    -14.794840    -2.259779    0.176214    32.712799    -10.921638    37.440739    -66.762665    -61.961426    70.219467    3.659393    -21.137398    12.629543    3.886692    -19.679459    -8.600610    -0.158746    31.329681    -4.410401    4.733432    18.499044    -2.047591    0.000000    0.000000    0.000000    2.088596    -24.736656    0.846712    -2.234244    41.331711    5.255589    4.374393    18.236448    -11.101170    0.000000    0.000000    0.000000    
-11.897466    106.048393    48.763374    1.265984    -2.099443    161.094391    0.315767    5.252390    -0.024376    1.211043    -1.306152    0.005170    -0.439831    31.750700    18.310215    -10.518828    -10.494720    16.601389    18.008955    -5.347518    -8.819209    -24.602095    -11.178324    -31.889984    27.073620    -55.073662    -90.901970    3.034630    -35.749832    -24.824783    -14.282437    -1.975737    0.339151    34.397537    -11.251760    37.372856    -66.497055    -63.691307    73.551300    1.802471    -21.162949    12.618939    3.835958    -19.447243    -9.720199    -0.156841    31.201744    -5.572745    4.809468    18.200689    -1.258026    0.000000    0.000000    0.000000    2.119853    -24.445313    0.967958    -2.145913    41.332970    4.393332    3.925741    18.047056    -11.829350    0.000000    0.000000    0.000000    
-11.818933    105.489494    48.460136    1.325396    -2.031669    160.112335    0.492911    5.166932    -0.166938    0.986681    -1.266644    -0.133665    -0.850388    31.813721    18.841997    -10.360629    -10.278631    17.148943    17.187370    -5.019083    -8.654282    -25.071764    -11.728505    -32.061565    25.695463    -54.997623    -94.524101    3.234271    -35.473286    -25.597080    -13.819811    -1.941479    0.729129    36.437939    -12.427147    37.343304    -62.143902    -64.820915    80.767509    -0.468146    -20.606714    12.622759    3.758595    -19.365566    -10.764913    -0.129819    31.218445    -5.916556    5.305311    18.392832    -1.442979    0.000000    0.000000    0.000000    2.158020    -24.187405    1.020047    -2.191034    41.318996    3.848600    2.934381    18.004332    -12.111819    0.000000    0.000000    0.000000    
-11.726501    104.871841    48.139954    1.439203    -1.872596    159.047897    0.516568    5.030869    -0.106040    0.951191    -0.907062    -0.075526    -0.687957    31.769600    19.301264    -10.790911    -9.974936    17.586981    16.588470    -4.836010    -8.733498    -25.934134    -12.770962    -32.459763    24.052658    -54.356800    -98.150131    3.598595    -34.772636    -26.615660    -13.388261    -1.870442    0.812197    37.771908    -13.607007    37.249634    -58.934589    -65.672974    86.328842    -3.377805    -20.266867    13.211727    3.754894    -19.111942    -11.701139    -0.196129    31.079502    -6.216255    4.956489    19.045637    -1.243858    0.000000    0.000000    0.000000    2.243993    -23.846941    1.200402    -2.168785    41.309917    3.352468    1.709857    18.252680    -12.394252    0.000000    0.000000    0.000000    
-11.631153    104.186539    47.813980    1.580124    -1.779237    158.066360    0.701746    4.785200    -0.154829    0.758584    -0.439059    -0.123119    -0.569959    31.598982    19.787767    -11.181285    -9.756073    18.050488    16.192183    -4.606592    -8.765797    -26.899643    -14.059787    -32.796238    22.728582    -53.644783    -101.197632    3.644410    -33.919651    -27.803308    -12.952144    -1.876374    0.958944    39.532219    -15.742310    37.601631    -53.084396    -65.330032    94.043610    -6.642633    -19.026091    15.109119    3.835805    -18.835066    -12.595757    -0.222001    30.705931    -6.477330    4.418083    20.424936    -0.713330    0.000000    0.000000    0.000000    2.334905    -23.522230    1.236095    -2.257749    41.226265    3.080639    0.299189    18.789232    -12.452703    0.000000    0.000000    0.000000    
